<svg xmlns="http://www.w3.org/2000/svg" width="240" height="56" viewBox="0 0 240 56"><g transform="translate(-570.362 -150.972)"><g transform="translate(570.362 168.522)"><path d="M589.409,159.424a70.3,70.3,0,0,0-11.418.857,2.048,2.048,0,0,0-1.92,1.969l-5.659,32.8a2.746,2.746,0,0,0-.049.606c0,.857.442,1.212,1.28,1.362a65.264,65.264,0,0,0,11.121.859c10.729,0,16.882-4.9,18.849-16.451l.936-5.55a21.313,21.313,0,0,0,.345-3.834C602.892,163.815,597.676,159.424,589.409,159.424Zm3.05,16.449-.936,5.55c-1.034,6.107-3.3,7.722-7.233,7.722-.64,0-2.461,0-2.805-.051l3.592-20.839c.345,0,2.165-.051,2.805-.051,3.15,0,4.872.908,4.872,4.541A19.985,19.985,0,0,1,592.459,175.873Z" transform="translate(-570.362 -159.424)"/><path d="M619.088,160.03a66.666,66.666,0,0,0-9.6-.606c-6.939,0-12.845,1.11-14.568,11.3l-2.706,15.843a16.143,16.143,0,0,0-.247,2.575c0,6.61,5.266,8.729,11.023,8.729a69.9,69.9,0,0,0,9.7-.606,1.176,1.176,0,0,0,1.131-1.009l1.084-6.156v-.152a.811.811,0,0,0-.838-.857h-9.941c-1.427,0-2.018-.354-2.018-1.514a8.751,8.751,0,0,1,.1-1.011l.738-4.186h12.107a1.214,1.214,0,0,0,1.132-1.011l1.034-5.953v-.152a.811.811,0,0,0-.836-.857H604.275l.64-3.684c.345-1.917,1.034-2.523,2.805-2.523h9.94a1.268,1.268,0,0,0,1.182-1.009l1.033-6.156v-.2C619.877,160.332,619.63,160.08,619.088,160.03Z" transform="translate(-555.726 -159.424)"/><path d="M643.839,160.288c0-.353-.246-.555-.64-.555h-8.76a1.321,1.321,0,0,0-1.132.958l-9.991,27.9c-.147.454-.294.707-.687.707s-.444-.253-.444-.707l-.345-27.9a.906.906,0,0,0-.887-.958h-8.316a.957.957,0,0,0-.984.958v.051l1.329,30.88c.2,5,3.641,6.056,8.367,6.056s8.611-1.06,10.532-6.056l11.861-30.88A1.507,1.507,0,0,0,643.839,160.288Z" transform="translate(-542.351 -159.228)"/><path d="M659.852,160.887c0-.454-.3-.756-.836-.807a63.675,63.675,0,0,0-9.547-.656c-6.6,0-12.845,1.11-14.568,11.353L630.52,196.41v.2a.76.76,0,0,0,.787.808h8.022a1.27,1.27,0,0,0,1.182-1.009l2.412-14.027h12.106a1.212,1.212,0,0,0,1.131-1.011l1.034-5.953v-.152a.811.811,0,0,0-.836-.857H644.25l.64-3.633c.345-1.917,1.034-2.523,2.805-2.523h9.942a1.214,1.214,0,0,0,1.132-1.009l1.083-6.156Z" transform="translate(-529.596 -159.424)"/><path d="M663.645,159.733h-8.071a1.165,1.165,0,0,0-1.132.958l-6.1,35.523a.8.8,0,0,0,.787,1.009H657.2a1.116,1.116,0,0,0,1.182-1.009l6.1-35.523A.762.762,0,0,0,663.645,159.733Z" transform="translate(-517.775 -159.228)"/><path d="M693.3,160.288c0-.353-.247-.555-.64-.555H683.9a1.321,1.321,0,0,0-1.133.958l-9.99,27.9c-.149.454-.3.707-.689.707s-.443-.253-.443-.707l-.346-27.9a.906.906,0,0,0-.885-.958h-8.318a.956.956,0,0,0-.983.958v.051l1.328,30.88c.2,5,3.641,6.056,8.367,6.056s8.613-1.06,10.532-6.056l11.861-30.88A1.51,1.51,0,0,0,693.3,160.288Z" transform="translate(-508.059 -159.228)"/><path d="M707.095,160.03a66.666,66.666,0,0,0-9.6-.606c-6.939,0-12.845,1.11-14.568,11.3l-2.707,15.843a16.319,16.319,0,0,0-.245,2.575c0,6.61,5.266,8.729,11.023,8.729a69.919,69.919,0,0,0,9.7-.606,1.176,1.176,0,0,0,1.131-1.009l1.083-6.156v-.152a.811.811,0,0,0-.836-.857h-9.942c-1.425,0-2.016-.354-2.016-1.514a8.778,8.778,0,0,1,.1-1.011l.738-4.186H703.06a1.213,1.213,0,0,0,1.132-1.011l1.034-5.953v-.152a.811.811,0,0,0-.838-.857H692.282l.64-3.684c.345-1.917,1.034-2.523,2.805-2.523h9.941a1.265,1.265,0,0,0,1.181-1.009l1.035-6.156v-.2C707.884,160.332,707.637,160.08,707.095,160.03Z" transform="translate(-496.119 -159.424)"/></g><g transform="translate(786.372 150.972)"><ellipse cx="11.995" cy="12.298" rx="11.995" ry="12.298" fill="#a600f4"/><g transform="translate(3.088 3.789)"><path d="M718.5,161.952l-4.575,1.352,2.885,3.973a1.024,1.024,0,0,1,.247.634.6.6,0,0,1-.287.506l-2.6,1.943a.686.686,0,0,1-.413.127.839.839,0,0,1-.66-.423l-2.719-4.1-2.72,4.1a.835.835,0,0,1-.66.423.681.681,0,0,1-.411-.127l-2.637-1.943a.6.6,0,0,1-.289-.506,1.033,1.033,0,0,1,.247-.634l2.885-3.973-4.533-1.352c-.371-.126-.7-.38-.7-.718a.38.38,0,0,1,.042-.211l1.03-3.21a.523.523,0,0,1,.536-.423,1.711,1.711,0,0,1,.452.085l4.573,1.563-.122-4.859v-.041c0-.465.206-.846.658-.846h3.3c.454,0,.619.38.619.887l-.041,4.859,4.49-1.563a1.723,1.723,0,0,1,.454-.085.523.523,0,0,1,.536.423l1.03,3.21a.457.457,0,0,1,.042.211C719.158,161.614,718.869,161.827,718.5,161.952Z" transform="translate(-701.561 -153.292)" fill="#fff"/></g></g></g></svg>